<?xml version="1.0" encoding="UTF-8"?>
<svg width="2125px" height="1534px" viewBox="0 0 2125 1534" version="1.1" xmlns="http://www.w3.org/2000/svg" xmlns:xlink="http://www.w3.org/1999/xlink">
    <title>background</title>
    <defs>
        <path d="M0.157212753,2 C-3.23011901,22.3415616 48.1205537,55.0043531 154.209231,99.9883746 C260.297908,144.972396 288.166384,220.789107 237.81466,327.438507 C189.42023,424.654066 171.806963,513.84123 184.974858,595 C198.142753,676.15877 242.428028,719.242982 317.830682,724.252637 C368.392849,730.815434 426.516122,710.071852 492.2005,662.021892 C557.884879,613.971932 646.950043,613.971932 759.395994,662.021892 C807.582376,689.236157 850.673301,715.064984 888.668769,739.508374 C926.664237,763.951764 981.573851,771.964471 1053.39761,763.546495 C1218.95539,731.580307 1296.82285,592.636338 1287,346.71459 C1277.17715,100.792842 1199.30968,-14.1120211 1053.39761,2 L0.157212753,2 Z" id="path-1"></path>
        <linearGradient x1="86.8814139%" y1="31.038983%" x2="0%" y2="68.961017%" id="linearGradient-2">
            <stop stop-color="#29529E" offset="0%"></stop>
            <stop stop-color="#12C9F5" offset="100%"></stop>
        </linearGradient>
        <linearGradient x1="96.7672812%" y1="31.038983%" x2="20.337754%" y2="65.9819171%" id="linearGradient-3">
            <stop stop-color="#3C469C" offset="0%"></stop>
            <stop stop-color="#00D4FF" offset="100%"></stop>
        </linearGradient>
        <path d="M72.4680758,2 C70.9347563,17.3505978 94.4247373,39.3962089 142.938019,68.1368334 C215.707941,111.24777 280.174743,142.816297 280.174743,224.581986 C280.174743,306.347675 229.197127,418.450897 222.953348,479.120049 C216.70957,539.789201 206.569531,645.313657 322.435767,675.666815 C438.302002,706.019973 477.259967,585.698925 615.555515,593.289091 C753.851063,600.879257 893.517353,710.216047 984.607809,710.216047 C1170.93487,710.216047 1213.44082,475.696784 1218,413.530357 C1237.31754,150.127265 1193.82863,13.2838124 1087.53326,3 L72.4680758,2 Z" id="path-4"></path>
        <path d="M270.741397,11.7648852 C371.593582,7.6071232 447.541557,38.5114091 498.585321,104.477743 C575.15097,203.427243 591.917672,206.161523 705.568291,220.073297 C819.21891,233.985071 899.610597,216.288634 986.82088,251.911975 C1044.88407,275.57591 1026.19634,368.450717 1020.38745,406.076753 C1012.33982,458.20384 982.890451,550.568039 896.685849,640.395105 C787.148135,754.535781 472.140333,852.403342 251.322627,717.378726 C116.561786,602.228963 43.7875774,468.940868 33,317.514441 C27.1116393,138.983908 95.2919364,27.1082686 270.741397,11.7648852 Z" id="path-5"></path>
        <linearGradient x1="0%" y1="18.4772811%" x2="87.1245712%" y2="80.8764192%" id="linearGradient-6">
            <stop stop-color="#2694D2" offset="0%"></stop>
            <stop stop-color="#2A439C" offset="100%"></stop>
        </linearGradient>
        <linearGradient x1="87.3439623%" y1="18.4772811%" x2="0%" y2="81.5227189%" id="linearGradient-7">
            <stop stop-color="#B01FD0" offset="0%"></stop>
            <stop stop-color="#5E62DF" offset="100%"></stop>
        </linearGradient>
        <linearGradient x1="89.4690933%" y1="2.35334165%" x2="0%" y2="81.5227189%" id="linearGradient-8">
            <stop stop-color="#00D4FF" offset="0%"></stop>
            <stop stop-color="#3C469C" offset="100%"></stop>
        </linearGradient>
        <path d="M211.954502,62.5493278 C305.35375,11.3036618 401.685937,44.3144306 452.240301,89.9578753 C502.794665,135.60132 554.928009,220.357229 693.013333,233.82927 C831.098658,247.30131 966.819208,242.760135 991.277902,295.857441 C1009.05071,350.212121 997.09415,480.156043 931.413594,570.50394 C823.384744,719.104683 612.137622,758.203142 434.28917,749.862785 C340.176045,745.449268 213.237896,707.00623 145.617692,541.166952 C48.9664712,304.128794 118.555255,113.794994 211.954502,62.5493278 Z" id="path-9"></path>
    </defs>
    <g id="background" stroke="none" stroke-width="1" fill="none" fill-rule="evenodd">
        <g id="hero-wave" transform="translate(794.000000, -2.000000)">
            <path d="M9.89583455,18.4257186 C3.40055574,29.7180902 30.7629666,52.2277515 91.9830673,85.9547026 C183.813218,136.545129 217.010532,177.100371 217.010532,239.762052 C217.010532,302.423733 164.684523,449 164.684523,538 C164.684523,627 195.61938,741.49366 349.621353,741.49366 C503.623326,741.49366 486.938535,662.490263 628.541319,670.814253 C770.144103,679.138243 826.285128,758.076287 913.143482,773.997974 C959.34616,782.467218 1146.32309,820.685832 1247.01421,710.216047 C1335.61657,613.009045 1344.13399,378.564509 1315.62804,214.693471 C1270.01137,59.4670906 1138.95788,19.6128669 1053.39761,18.4257186 L9.89583455,18.4257186 Z" id="Path-3" fill="#E5E5E5"></path>
            <g id="Path-2">
                <use fill="#198DCD" xlink:href="#path-1"></use>
                <use fill="#00BCEF" xlink:href="#path-1"></use>
            </g>
            <g id="Path">
                <use fill="url(#linearGradient-2)" xlink:href="#path-4"></use>
                <use fill="url(#linearGradient-3)" xlink:href="#path-4"></use>
            </g>
        </g>
        <g id="blob2" transform="translate(0.000000, 737.000000)">
            <path d="M269.84057,1.93155283 C388.658529,-4.86530015 471.142389,19.5243245 517.29215,75.1004267 C586.516792,158.46458 603.213502,203.518379 759.387994,203.518379 C915.562486,203.518379 996.284298,198.590916 1027.93236,255.119141 C1098.50908,422.256045 937.245431,690.225233 756,755.56039 C536.18945,834.797459 315.190082,782.649124 252.152127,742.918569 C62.1196506,623.147936 -8.63990877,390.330985 1,242.161567 C10.6399088,93.9921486 137.525501,24.8455134 269.84057,1.93155283 Z" id="Path-4" fill="#E5E5E5"></path>
            <g id="Path-5">
                <use fill="#C368DA" xlink:href="#path-5"></use>
                <use fill="#00BCEF" xlink:href="#path-5"></use>
            </g>
            <g id="Path-6">
                <use fill="url(#linearGradient-6)" xlink:href="#path-9"></use>
                <use fill="url(#linearGradient-7)" xlink:href="#path-9"></use>
                <use fill="url(#linearGradient-8)" xlink:href="#path-9"></use>
            </g>
        </g>
    </g>
</svg>